<svg viewBox="0 0 289.4036888275862 247.2" height="247.2" width="289.4036888275862"><g><svg viewBox="0 0 289.4036888275862 247.2" height="247.2" width="289.4036888275862"><g><svg viewBox="0 0 289.4036888275862 247.2" height="247.2" width="289.4036888275862"><g id="textblocktransform"><svg viewBox="0 0 289.4036888275862 247.2" height="247.2" width="289.4036888275862" id="textblock"><g><svg viewBox="0 0 289.4036888275862 247.2" height="247.2" width="289.4036888275862"><rect width="289.4036888275862" height="247.2" x="0" y="0" opacity="1" fill="#252422" data-fill-palette-color="tertiary"></rect><g transform="matrix(1,0,0,1,23.607599999999998,23.607599999999998)"><svg width="242.18848882758624" viewBox="1.0499999523162842 -35.25 43.900001525878906 36.25" height="199.9848" data-palette-color="#ffffff"><path d="M4.6-2.5L5.35-6.9 7.3-32.5 3.2-33.5 3.45-35.25 9.55-35 12.8-35 12.8-34 20.6-14.55 22.85-8 22.95-8 24.95-14.2 32.85-34 32.85-35 35.85-35 42.7-35.25 42.6-33.5 38.45-32.5 40.65-7.5 41.55-2.4 44.95-1.5 44.7 0.25 38.6 0 31.75 0.25 31.85-1.5 35.45-2.35 35.6-7 35.15-14.5 33.75-29.5 33.5-29.5 31.55-23.4 23.4-2.3 24.2 0 21.8 1 20.85-1.35 11.55-23.55 9.6-29.5 9.4-29.5 8.35-13.35 8.15-6.8 8.25-2.45 11.9-1.45 11.65 0.3 6.4 0 1.05 0.25 1.15-1.5 4.6-2.5Z" opacity="1" transform="matrix(1,0,0,1,0,0)" fill="#ffffff" class="wordmark-text-0" data-fill-palette-color="quaternary" id="text-0"></path></svg></g></svg></g></svg></g></svg></g></svg></g><defs></defs></svg>
